<svg xmlns="http://www.w3.org/2000/svg" xmlns:xlink="http://www.w3.org/1999/xlink" width="500" zoomAndPan="magnify" viewBox="0 0 375 374.999991" height="500" preserveAspectRatio="xMidYMid meet" version="1.0"><defs><clipPath id="832d211fb7"><path d="M 12.640625 12.640625 L 362.140625 12.640625 L 362.140625 362.140625 L 12.640625 362.140625 Z M 12.640625 12.640625 " clip-rule="nonzero"/></clipPath></defs><g clip-path="url(#832d211fb7)"><path fill="#000000" d="M 187.402344 12.640625 C 90.882812 12.640625 12.640625 90.882812 12.640625 187.402344 C 12.640625 283.921875 90.882812 362.167969 187.402344 362.167969 C 283.921875 362.167969 362.167969 283.921875 362.167969 187.402344 C 362.167969 90.882812 283.921875 12.640625 187.402344 12.640625 Z M 256.042969 220.082031 C 256.042969 224.046875 253.960938 227.703125 250.566406 229.6875 L 202.53125 257.789062 C 193.171875 263.273438 181.628906 263.273438 172.269531 257.789062 L 124.230469 229.6875 C 120.847656 227.710938 118.757812 224.046875 118.757812 220.082031 L 118.757812 190.125 L 180.953125 218.277344 C 185.054688 220.132812 189.738281 220.132812 193.839844 218.277344 L 256.035156 190.125 L 256.035156 220.074219 Z M 295.023438 165.742188 L 193.09375 211.871094 C 189.472656 213.515625 185.328125 213.515625 181.707031 211.871094 L 99.101562 174.484375 L 99.101562 210.742188 L 99.699219 211.078125 C 101.726562 212.484375 103.066406 214.859375 103.066406 217.5625 C 103.066406 219.71875 102.207031 221.675781 100.828125 223.089844 L 99.855469 223.921875 L 102.1875 258.625 L 88.695312 258.625 L 91.03125 223.921875 L 90.054688 223.089844 C 88.675781 221.675781 87.820312 219.71875 87.820312 217.5625 C 87.820312 214.859375 89.148438 212.484375 91.183594 211.078125 L 91.78125 210.742188 L 91.78125 171.160156 L 79.789062 165.734375 C 77.453125 164.675781 77.453125 161.320312 79.789062 160.261719 L 181.710938 114.132812 C 183.523438 113.308594 185.46875 112.898438 187.410156 112.898438 C 189.351562 112.898438 191.289062 113.308594 193.105469 114.132812 L 295.039062 160.261719 C 297.371094 161.320312 297.371094 164.675781 295.039062 165.734375 Z M 295.023438 165.742188 " fill-opacity="1" fill-rule="nonzero"/></g></svg>